<?xml version="1.0" standalone="no"?>
<!DOCTYPE svg PUBLIC "-//W3C//DTD SVG 20010904//EN"
 "http://www.w3.org/TR/2001/REC-SVG-20010904/DTD/svg10.dtd">
<svg version="1.0" xmlns="http://www.w3.org/2000/svg"
 width="500.000000pt" height="500.000000pt" viewBox="0 0 500.000000 500.000000"
 preserveAspectRatio="xMidYMid meet">

<g transform="translate(0.000000,500.000000) scale(0.100000,-0.100000)"
fill="#000000" stroke="none">
<path d="M1365 2463 l-57 -36 38 -23 c85 -49 84 -47 21 -83 l-57 -32 0 -72 0
-72 57 -34 57 -34 54 29 c29 16 56 32 58 36 2 3 -21 21 -51 38 -30 17 -55 33
-55 35 0 2 25 18 55 35 l55 31 0 75 0 74 -37 23 c-79 50 -75 49 -138 10z m93
-187 c3 -3 -14 -4 -36 -3 -23 1 -45 7 -49 11 -4 5 -2 6 5 2 6 -4 12 -3 12 3 0
9 56 -2 68 -13z m19 2 c-3 -8 -6 -5 -6 6 -1 11 2 17 5 13 3 -3 4 -12 1 -19z"/>
<path d="M1630 2255 l0 -195 40 0 40 0 0 123 1 122 35 -67 c28 -56 39 -68 59
-68 19 0 31 13 62 68 l38 67 3 -122 3 -123 39 0 40 0 0 183 c0 197 -2 207 -52
207 -25 0 -32 -9 -73 -90 -25 -49 -49 -90 -53 -90 -4 0 -25 35 -47 77 -49 94
-58 103 -101 103 l-34 0 0 -195z"/>
<path d="M2960 2400 c0 -33 -3 -40 -20 -40 -16 0 -20 -7 -20 -31 0 -22 5 -32
20 -36 18 -5 20 -14 20 -98 0 -111 10 -126 95 -133 l55 -4 0 35 c0 33 -3 36
-32 39 l-33 3 -3 78 -3 77 36 0 c33 0 35 2 35 35 0 33 -2 35 -35 35 -34 0 -35
1 -35 40 l0 40 -40 0 -40 0 0 -40z"/>
<path d="M3170 2352 c-24 -19 -25 -25 -25 -131 0 -102 2 -112 23 -133 19 -20
35 -23 112 -26 l90 -4 0 36 0 35 -67 3 c-62 3 -68 5 -71 26 -3 21 0 22 72 22
l76 0 0 73 c0 102 -8 111 -107 115 -67 3 -82 1 -103 -16z m128 -84 c3 -26 1
-28 -32 -28 -33 0 -36 2 -36 31 0 28 2 30 33 27 27 -2 33 -8 35 -30z"/>
<path d="M2060 2226 c0 -157 4 -166 79 -166 26 0 52 5 59 12 9 9 12 4 12 -25
l0 -37 -70 0 -70 0 0 -35 0 -35 90 0 c83 0 93 2 115 25 25 24 25 26 25 210 l0
185 -45 0 -45 0 0 -115 0 -115 -35 0 -35 0 0 115 0 115 -40 0 -40 0 0 -134z"/>
<path d="M2340 2341 c0 -10 8 -61 19 -112 10 -52 22 -111 25 -133 l7 -38 71 4
c51 3 74 8 83 21 7 9 22 68 34 129 12 62 24 121 27 131 5 14 -1 17 -38 17
l-44 0 -19 -112 c-11 -61 -25 -113 -31 -115 -8 -3 -18 30 -28 89 -26 149 -21
138 -66 138 -33 0 -40 -4 -40 -19z"/>
<path d="M2660 2340 c-18 -18 -20 -33 -20 -130 0 -141 7 -150 114 -150 59 0
78 4 100 21 25 20 26 24 26 128 0 99 -2 109 -23 129 -20 19 -35 22 -100 22
-64 0 -80 -3 -97 -20z m135 -130 l0 -75 -37 -3 -38 -3 0 81 0 81 38 -3 37 -3
0 -75z"/>
<path d="M1930 1796 c0 -25 5 -46 10 -46 6 0 10 6 10 14 0 7 9 16 21 19 32 9
22 51 -13 55 -27 3 -28 2 -28 -42z m40 14 c0 -5 -4 -10 -10 -10 -5 0 -10 5
-10 10 0 6 5 10 10 10 6 0 10 -4 10 -10z"/>
<path d="M2020 1796 c0 -25 5 -46 10 -46 6 0 10 7 10 15 0 8 5 15 10 15 6 0
10 -7 10 -15 0 -8 4 -15 9 -15 6 0 9 19 8 43 -2 38 -5 42 -29 45 -27 3 -28 2
-28 -42z m40 14 c0 -5 -4 -10 -10 -10 -5 0 -10 5 -10 10 0 6 5 10 10 10 6 0
10 -4 10 -10z"/>
<path d="M2120 1795 c0 -41 2 -45 25 -45 31 0 33 20 3 21 -22 0 -22 1 2 11 25
11 25 11 3 15 -28 5 -30 23 -3 23 11 0 20 5 20 10 0 6 -11 10 -25 10 -23 0
-25 -4 -25 -45z"/>
<path d="M2200 1815 c0 -18 5 -25 20 -25 11 0 20 -4 20 -10 0 -5 -9 -10 -20
-10 -11 0 -20 -4 -20 -10 0 -16 47 -11 54 6 8 20 0 33 -28 44 l-21 9 23 0 c30
1 28 21 -3 21 -20 0 -25 -5 -25 -25z"/>
<path d="M2290 1795 c0 -25 5 -45 10 -45 6 0 10 20 10 45 0 25 -4 45 -10 45
-5 0 -10 -20 -10 -45z"/>
<path d="M2340 1795 c0 -46 0 -46 33 -43 30 3 32 5 32 43 0 38 -2 40 -32 43
-33 3 -33 3 -33 -43z m50 0 c0 -16 -6 -25 -15 -25 -9 0 -15 9 -15 25 0 16 6
25 15 25 9 0 15 -9 15 -25z"/>
<path d="M2440 1795 c0 -43 1 -45 30 -45 36 0 38 7 8 20 -18 7 -19 9 -5 9 21
1 23 21 2 21 -8 0 -15 5 -15 10 0 6 6 10 14 10 8 0 18 5 21 10 4 6 -7 10 -24
10 -30 0 -31 -1 -31 -45z"/>
<path d="M2532 1795 c1 -31 3 -39 5 -21 l5 29 23 -29 24 -29 -1 50 c-1 31 -3
39 -5 21 l-5 -29 -23 29 -24 29 1 -50z"/>
<path d="M2620 1830 c0 -5 5 -10 10 -10 6 0 10 -16 10 -35 0 -19 5 -35 10 -35
6 0 10 16 10 35 0 19 5 35 10 35 6 0 10 5 10 10 0 6 -13 10 -30 10 -16 0 -30
-4 -30 -10z"/>
<path d="M2750 1827 c0 -44 14 -77 31 -77 11 0 19 3 19 8 0 4 4 24 9 45 5 20
5 37 0 37 -4 0 -11 -16 -15 -35 -7 -38 -24 -38 -24 0 0 13 -4 27 -10 30 -5 3
-10 0 -10 -8z"/>
<path d="M2844 1816 c-10 -41 4 -68 34 -64 24 3 27 7 27 43 0 36 -3 40 -27 43
-22 3 -29 -2 -34 -22z m46 -21 c0 -16 -6 -25 -15 -25 -9 0 -15 9 -15 25 0 16
6 25 15 25 9 0 15 -9 15 -25z"/>
<path d="M2940 1830 c0 -5 5 -10 10 -10 6 0 10 -16 10 -35 0 -19 5 -35 10 -35
6 0 10 16 10 35 0 19 5 35 10 35 6 0 10 5 10 10 0 6 -13 10 -30 10 -16 0 -30
-4 -30 -10z"/>
<path d="M3030 1795 c0 -41 2 -45 25 -45 31 0 33 20 3 21 -22 0 -22 1 2 11 25
11 25 11 3 15 -28 5 -30 23 -3 23 11 0 20 5 20 10 0 6 -11 10 -25 10 -23 0
-25 -4 -25 -45z"/>
</g>
</svg>
